<mxfile host="app.diagrams.net" modified="2021-04-01T08:48:59.081Z" agent="5.0 (Windows NT 10.0; Win64; x64) AppleWebKit/537.36 (KHTML, like Gecko) Chrome/89.0.4389.90 Safari/537.36" etag="HpuYFDDPbKUYyg6MvZZQ" version="14.5.3" type="github">
  <diagram id="zSGuNCVuyLexyMfJzmde" name="ページ1">
    <mxGraphModel dx="1038" dy="548" grid="1" gridSize="10" guides="1" tooltips="1" connect="1" arrows="1" fold="1" page="1" pageScale="1" pageWidth="827" pageHeight="1169" math="0" shadow="0">
      <root>
        <mxCell id="0" />
        <mxCell id="1" parent="0" />
        <mxCell id="Tm7CqngPH54pWnZSqlNK-1" value="外観検査&lt;br&gt;量産機PC" style="rounded=0;whiteSpace=wrap;html=1;" parent="1" vertex="1">
          <mxGeometry x="120" y="160" width="120" height="60" as="geometry" />
        </mxCell>
        <mxCell id="Tm7CqngPH54pWnZSqlNK-3" value="タグ付け_PC1" style="rounded=0;whiteSpace=wrap;html=1;" parent="1" vertex="1">
          <mxGeometry x="359" y="110" width="120" height="40" as="geometry" />
        </mxCell>
        <mxCell id="Tm7CqngPH54pWnZSqlNK-6" value="タグ付け_PC2" style="rounded=0;whiteSpace=wrap;html=1;" parent="1" vertex="1">
          <mxGeometry x="359" y="170" width="120" height="40" as="geometry" />
        </mxCell>
        <mxCell id="Tm7CqngPH54pWnZSqlNK-7" value="タグ付け_PC3" style="rounded=0;whiteSpace=wrap;html=1;" parent="1" vertex="1">
          <mxGeometry x="359" y="230" width="120" height="40" as="geometry" />
        </mxCell>
        <mxCell id="Tm7CqngPH54pWnZSqlNK-8" value="学習PC" style="rounded=0;whiteSpace=wrap;html=1;" parent="1" vertex="1">
          <mxGeometry x="630" y="160" width="120" height="60" as="geometry" />
        </mxCell>
        <mxCell id="Tm7CqngPH54pWnZSqlNK-9" value="田戸岬工場" style="text;html=1;align=center;verticalAlign=middle;resizable=0;points=[];autosize=1;" parent="1" vertex="1">
          <mxGeometry x="140" y="340" width="80" height="20" as="geometry" />
        </mxCell>
        <mxCell id="Tm7CqngPH54pWnZSqlNK-10" value="国分工場_生技開発" style="text;html=1;align=center;verticalAlign=middle;resizable=0;points=[];autosize=1;" parent="1" vertex="1">
          <mxGeometry x="380" y="340" width="120" height="20" as="geometry" />
        </mxCell>
        <mxCell id="Tm7CqngPH54pWnZSqlNK-12" value="" style="endArrow=classic;html=1;exitX=0.5;exitY=1;exitDx=0;exitDy=0;entryX=0.5;entryY=1;entryDx=0;entryDy=0;" parent="1" source="Tm7CqngPH54pWnZSqlNK-1" target="Tm7CqngPH54pWnZSqlNK-7" edge="1">
          <mxGeometry relative="1" as="geometry">
            <mxPoint x="370" y="250" as="sourcePoint" />
            <mxPoint x="470" y="250" as="targetPoint" />
            <Array as="points">
              <mxPoint x="180" y="320" />
              <mxPoint x="419" y="320" />
            </Array>
          </mxGeometry>
        </mxCell>
        <mxCell id="Tm7CqngPH54pWnZSqlNK-13" value="ハードディスク送付" style="edgeLabel;resizable=0;html=1;align=center;verticalAlign=middle;" parent="Tm7CqngPH54pWnZSqlNK-12" connectable="0" vertex="1">
          <mxGeometry relative="1" as="geometry">
            <mxPoint x="15.83" as="offset" />
          </mxGeometry>
        </mxCell>
        <mxCell id="Tm7CqngPH54pWnZSqlNK-15" value="" style="strokeWidth=2;html=1;shape=mxgraph.flowchart.annotation_2;align=left;labelPosition=right;pointerEvents=1;direction=west;" parent="1" vertex="1">
          <mxGeometry x="490" y="110" width="50" height="160" as="geometry" />
        </mxCell>
        <mxCell id="Tm7CqngPH54pWnZSqlNK-16" value="" style="endArrow=classic;html=1;exitX=0;exitY=0.5;exitDx=0;exitDy=0;exitPerimeter=0;entryX=0;entryY=0.5;entryDx=0;entryDy=0;" parent="1" source="Tm7CqngPH54pWnZSqlNK-15" target="Tm7CqngPH54pWnZSqlNK-8" edge="1">
          <mxGeometry width="50" height="50" relative="1" as="geometry">
            <mxPoint x="390" y="120" as="sourcePoint" />
            <mxPoint x="440" y="70" as="targetPoint" />
          </mxGeometry>
        </mxCell>
        <mxCell id="Tm7CqngPH54pWnZSqlNK-17" value="" style="endArrow=classic;html=1;exitX=0.5;exitY=0;exitDx=0;exitDy=0;entryX=0.5;entryY=0;entryDx=0;entryDy=0;" parent="1" source="Tm7CqngPH54pWnZSqlNK-8" target="Tm7CqngPH54pWnZSqlNK-1" edge="1">
          <mxGeometry width="50" height="50" relative="1" as="geometry">
            <mxPoint x="390" y="120" as="sourcePoint" />
            <mxPoint x="440" y="70" as="targetPoint" />
            <Array as="points">
              <mxPoint x="690" y="60" />
              <mxPoint x="180" y="60" />
            </Array>
          </mxGeometry>
        </mxCell>
        <mxCell id="Tm7CqngPH54pWnZSqlNK-18" value="ハードディスク送付" style="edgeLabel;html=1;align=center;verticalAlign=middle;resizable=0;points=[];" parent="Tm7CqngPH54pWnZSqlNK-17" vertex="1" connectable="0">
          <mxGeometry x="-0.026" relative="1" as="geometry">
            <mxPoint as="offset" />
          </mxGeometry>
        </mxCell>
        <mxCell id="Tm7CqngPH54pWnZSqlNK-20" value="国分工場_生技開発" style="text;html=1;align=center;verticalAlign=middle;resizable=0;points=[];autosize=1;" parent="1" vertex="1">
          <mxGeometry x="630" y="340" width="120" height="20" as="geometry" />
        </mxCell>
        <mxCell id="Tm7CqngPH54pWnZSqlNK-21" value="外観検査&lt;br&gt;ｴｯｼﾞﾃﾞﾊﾞｲｽ" style="rounded=0;whiteSpace=wrap;html=1;" parent="1" vertex="1">
          <mxGeometry x="110" y="666" width="120" height="60" as="geometry" />
        </mxCell>
        <mxCell id="Tm7CqngPH54pWnZSqlNK-22" value="データベース&lt;br&gt;サーバー" style="rounded=0;whiteSpace=wrap;html=1;" parent="1" vertex="1">
          <mxGeometry x="250" y="665" width="120" height="60" as="geometry" />
        </mxCell>
        <mxCell id="Tm7CqngPH54pWnZSqlNK-23" value="学習PC" style="rounded=0;whiteSpace=wrap;html=1;" parent="1" vertex="1">
          <mxGeometry x="394" y="665" width="120" height="60" as="geometry" />
        </mxCell>
        <mxCell id="Tm7CqngPH54pWnZSqlNK-24" value="GitLab&lt;br&gt;サーバー" style="rounded=0;whiteSpace=wrap;html=1;" parent="1" vertex="1">
          <mxGeometry x="540" y="664.5" width="120" height="60" as="geometry" />
        </mxCell>
        <mxCell id="Tm7CqngPH54pWnZSqlNK-25" value="ハードディスク" style="edgeLabel;html=1;align=center;verticalAlign=middle;resizable=0;points=[];" parent="1" vertex="1" connectable="0">
          <mxGeometry x="569.9957142857143" y="199.9999999999999" as="geometry" />
        </mxCell>
        <mxCell id="Tm7CqngPH54pWnZSqlNK-55" value="・データ&lt;br&gt;　　画像データ&lt;br&gt;　　型番情報&lt;br&gt;　　判定モデル&lt;br&gt;　　・・・&lt;br&gt;&lt;br&gt;・ソフト&lt;br&gt;　タグ付けツール&lt;br&gt;　自動再学習アプリ" style="rounded=0;whiteSpace=wrap;html=1;align=left;verticalAlign=top;dashed=1;dashPattern=1 1;" parent="1" vertex="1">
          <mxGeometry x="820" y="737.5" width="120" height="150" as="geometry" />
        </mxCell>
        <mxCell id="Tm7CqngPH54pWnZSqlNK-60" value="" style="endArrow=classic;html=1;entryX=0.25;entryY=1;entryDx=0;entryDy=0;exitX=0;exitY=0.5;exitDx=0;exitDy=0;dashed=1;" parent="1" source="Tm7CqngPH54pWnZSqlNK-55" target="Tm7CqngPH54pWnZSqlNK-71" edge="1">
          <mxGeometry width="50" height="50" relative="1" as="geometry">
            <mxPoint x="504.25" y="597.5" as="sourcePoint" />
            <mxPoint x="554.25" y="547.5" as="targetPoint" />
          </mxGeometry>
        </mxCell>
        <mxCell id="Tm7CqngPH54pWnZSqlNK-66" style="edgeStyle=orthogonalEdgeStyle;rounded=0;orthogonalLoop=1;jettySize=auto;html=1;exitX=0.5;exitY=1;exitDx=0;exitDy=0;dashed=1;" parent="1" source="Tm7CqngPH54pWnZSqlNK-23" target="Tm7CqngPH54pWnZSqlNK-23" edge="1">
          <mxGeometry relative="1" as="geometry" />
        </mxCell>
        <mxCell id="Tm7CqngPH54pWnZSqlNK-71" value="・ソフト&lt;br&gt;　　量産ソフト" style="rounded=0;whiteSpace=wrap;html=1;align=left;verticalAlign=top;dashed=1;dashPattern=1 1;" parent="1" vertex="1">
          <mxGeometry x="820" y="617.5" width="120" height="40" as="geometry" />
        </mxCell>
        <mxCell id="Tm7CqngPH54pWnZSqlNK-72" value="" style="endArrow=classic;html=1;exitX=0;exitY=0.5;exitDx=0;exitDy=0;dashed=1;" parent="1" source="Tm7CqngPH54pWnZSqlNK-71" edge="1">
          <mxGeometry width="50" height="50" relative="1" as="geometry">
            <mxPoint x="580" y="722.5" as="sourcePoint" />
            <mxPoint x="820" y="537.5" as="targetPoint" />
          </mxGeometry>
        </mxCell>
        <mxCell id="I03jtUjxZPY6olnYF68Y-1" value="" style="shape=image;html=1;verticalAlign=top;verticalLabelPosition=bottom;labelBackgroundColor=#ffffff;imageAspect=0;aspect=fixed;image=https://cdn2.iconfinder.com/data/icons/ios-7-icons/50/video_camera-128.png;fontSize=16;direction=west;" vertex="1" parent="1">
          <mxGeometry x="43" y="662" width="38" height="38" as="geometry" />
        </mxCell>
        <mxCell id="I03jtUjxZPY6olnYF68Y-2" value="" style="endArrow=none;html=1;fontSize=16;entryX=0;entryY=0.5;entryDx=0;entryDy=0;exitX=0;exitY=0.25;exitDx=0;exitDy=0;" edge="1" parent="1" source="Tm7CqngPH54pWnZSqlNK-21" target="I03jtUjxZPY6olnYF68Y-1">
          <mxGeometry width="50" height="50" relative="1" as="geometry">
            <mxPoint x="208" y="730" as="sourcePoint" />
            <mxPoint x="258" y="680" as="targetPoint" />
          </mxGeometry>
        </mxCell>
        <mxCell id="I03jtUjxZPY6olnYF68Y-3" value="PLC" style="shape=process;whiteSpace=wrap;html=1;backgroundOutline=1;fontSize=12;" vertex="1" parent="1">
          <mxGeometry x="43" y="698" width="45" height="26.5" as="geometry" />
        </mxCell>
        <mxCell id="I03jtUjxZPY6olnYF68Y-4" value="" style="endArrow=none;html=1;fontSize=16;entryX=0;entryY=0.75;entryDx=0;entryDy=0;exitX=1;exitY=0.5;exitDx=0;exitDy=0;" edge="1" parent="1" source="I03jtUjxZPY6olnYF68Y-3" target="Tm7CqngPH54pWnZSqlNK-21">
          <mxGeometry width="50" height="50" relative="1" as="geometry">
            <mxPoint x="68" y="850" as="sourcePoint" />
            <mxPoint x="118" y="800" as="targetPoint" />
          </mxGeometry>
        </mxCell>
        <mxCell id="I03jtUjxZPY6olnYF68Y-5" value="社内ネットワーク" style="endArrow=none;dashed=1;html=1;dashPattern=1 3;strokeWidth=2;fontSize=17;" edge="1" parent="1">
          <mxGeometry width="50" height="50" relative="1" as="geometry">
            <mxPoint x="30" y="580" as="sourcePoint" />
            <mxPoint x="660" y="580" as="targetPoint" />
          </mxGeometry>
        </mxCell>
        <mxCell id="I03jtUjxZPY6olnYF68Y-7" value="" style="endArrow=none;html=1;fontSize=17;" edge="1" parent="1">
          <mxGeometry width="50" height="50" relative="1" as="geometry">
            <mxPoint x="170" y="560" as="sourcePoint" />
            <mxPoint x="220" y="510" as="targetPoint" />
          </mxGeometry>
        </mxCell>
      </root>
    </mxGraphModel>
  </diagram>
</mxfile>
